<svg xmlns="http://www.w3.org/2000/svg" viewBox="0 0 720 160" role="img" aria-label="KI-Kandidat" fill="currentColor">
  <title>KI-Kandidat</title>
  <defs>
    <linearGradient id="kiSilver" x1="0" y1="0" x2="1" y2="1">
      <stop offset="0%"  stop-color="#F2F4F7"/>
      <stop offset="22%" stop-color="#E5E7EB"/>
      <stop offset="48%" stop-color="#9CA3AF"/>
      <stop offset="78%" stop-color="#4B5563"/>
      <stop offset="100%" stop-color="#1F2937"/>
    </linearGradient>
    <linearGradient id="kiShine" x1="0" y1="0" x2="1" y2="0">
      <stop offset="0%"   stop-color="#FFFFFF" stop-opacity="0"/>
      <stop offset="48%"  stop-color="#FFFFFF" stop-opacity="0.55"/>
      <stop offset="52%"  stop-color="#FFFFFF" stop-opacity="0.55"/>
      <stop offset="100%" stop-color="#FFFFFF" stop-opacity="0"/>
    </linearGradient>
    <linearGradient id="kiAmber" x1="0" y1="0" x2="1" y2="1">
      <stop offset="0%"  stop-color="#E2A23E"/>
      <stop offset="55%" stop-color="#C78417"/>
      <stop offset="100%" stop-color="#8E5708"/>
    </linearGradient>
  </defs>

  <!-- K mark — geometric, silver gradient -->
  <g>
    <path d="M30 18 L78 18 L78 142 L30 142 Z" fill="url(#kiSilver)"/>
    <path d="M78 80 L150 18 L196 18 L106 96 Z" fill="url(#kiSilver)"/>
    <path d="M78 80 L78 110 L150 142 L196 142 L106 92 Z" fill="url(#kiSilver)"/>
    <path d="M34 22 L74 22 L74 60 L34 60 Z" fill="#FFFFFF" opacity="0.18"/>
    <path d="M30 18 L78 18 L196 18 L196 142 L150 142 L78 110 L78 142 L30 142 Z" fill="url(#kiShine)" opacity="0.22"/>
  </g>

  <!-- i — slim silver stem with amber "person head" dot -->
  <g transform="translate(208 0)">
    <circle cx="20" cy="32" r="14" fill="url(#kiAmber)"/>
    <ellipse cx="20" cy="48" rx="14" ry="4" fill="url(#kiAmber)" opacity="0.20"/>
    <rect x="4" y="58" width="32" height="84" rx="6" fill="url(#kiSilver)"/>
  </g>

  <!-- Wordmark KANDIDAT — uses currentColor so adapts to context -->
  <text x="270" y="108"
        font-family="'Bricolage Grotesque','Plus Jakarta Sans',system-ui,sans-serif"
        font-weight="800"
        font-size="76"
        letter-spacing="-2"
        textLength="430"
        lengthAdjust="spacingAndGlyphs">KANDIDAT</text>
</svg>
